Coordinates
version=1
nRows=65
nColumns=12
inDegrees=yes

Units are S.I. units (second, meters, Newtons, ...)
Angles are in degrees

endheader
time	SC_y	SC_z	SC_x	AC_y	AC_z	AC_x	GH_y	GH_z	GH_yy	EL_x	PS_y
       0.0              -16.66          38.33          22.45           32.8          4.811         -3.933          126.4          46.98         -165.3          123.1          5.888
   0.04337              -16.66          38.33          22.45           32.8          4.808         -3.935          126.4          46.98         -165.3          123.1          5.892
   0.08674              -16.66          38.33          22.45          32.81          4.805         -3.937          126.3          46.99         -165.3          123.1          5.897
    0.1301              -16.66          38.33          22.46          32.81          4.802          -3.94          126.3           47.0         -165.3          123.1          5.902
    0.1735              -16.66          38.32          22.46          32.82          4.799         -3.942          126.2           47.0         -165.3          123.1          5.908
    0.2169              -16.66          38.32          22.47          32.82          4.795         -3.945          126.1          47.01         -165.3          123.1          5.913
    0.2602              -16.67          38.32          22.47          32.83          4.792         -3.948          126.1          47.02         -165.3          123.1           5.92
    0.3036              -16.67          38.32          22.48          32.83          4.788         -3.951          126.0          47.03         -165.3          123.1          5.926
     0.347              -16.67          38.31          22.49          32.84          4.783         -3.954          126.0          47.04         -165.3          123.1          5.933
    0.3903              -16.67          38.31          22.49          32.85          4.779         -3.958          125.9          47.05         -165.3          123.1          5.941
    0.4337              -16.67          38.31           22.5          32.85          4.774         -3.962          125.8          47.06         -165.3          123.0          5.949
    0.4771              -16.67           38.3          22.51          32.86          4.769         -3.966          125.7          47.07         -165.3          123.0          5.958
    0.5205              -16.67           38.3          22.52          32.87          4.763          -3.97          125.6          47.09         -165.3          123.0          5.968
    0.5638              -16.67           38.3          22.53          32.88          4.757         -3.975          125.5           47.1         -165.3          123.0          5.978
    0.6072              -16.68          38.29          22.54          32.89          4.751         -3.981          125.4          47.12         -165.3          123.0          5.989
    0.6506              -16.68          38.29          22.55           32.9          4.743         -3.986          125.3          47.13         -165.3          123.0          6.001
    0.6939              -16.68          38.28          22.56          32.91          4.736         -3.992          125.2          47.15         -165.3          122.9          6.014
    0.7373              -16.68          38.28          22.57          32.92          4.727         -3.999          125.0          47.17         -165.3          122.9          6.028
    0.7807              -16.68          38.27          22.59          32.94          4.718         -4.006          124.9          47.19         -165.3          122.9          6.044
    0.8241              -16.69          38.27           22.6          32.95          4.708         -4.015          124.7          47.22         -165.3          122.9          6.061
    0.8674              -16.69          38.26          22.62          32.97          4.697         -4.023          124.5          47.24         -165.3          122.8           6.08
    0.9108              -16.69          38.25          22.64          32.98          4.685         -4.033          124.3          47.27         -165.3          122.8            6.1
    0.9542               -16.7          38.24          22.66           33.0          4.671         -4.044          124.1           47.3         -165.3          122.8          6.123
    0.9976               -16.7          38.23          22.68          33.03          4.656         -4.056          123.9          47.34         -165.2          122.7          6.149
     1.041               -16.7          38.22          22.71          33.05           4.64         -4.069          123.6          47.37         -165.2          122.7          6.177
     1.084              -16.71          38.21          22.74          33.08          4.621         -4.084          123.3          47.42         -165.2          122.7          6.208
     1.128              -16.71           38.2          22.77          33.11            4.6           -4.1          123.0          47.47         -165.2          122.6          6.243
     1.171              -16.72          38.18          22.81          33.14          4.577         -4.119          122.6          47.52         -165.2          122.5          6.282
     1.214              -16.73          38.17          22.85          33.18          4.551          -4.14          122.1          47.58         -165.2          122.5          6.327
     1.258              -16.74          38.15          22.89          33.23          4.521         -4.164          121.6          47.65         -165.2          122.4          6.378
     1.301              -16.74          38.12          22.95          33.28          4.487         -4.191          121.1          47.73         -165.2          122.3          6.435
     1.345              -16.75           38.1          23.01          33.34          4.447         -4.222          120.4          47.82         -165.1          122.2          6.502
     1.388              -16.77          38.07          23.08           33.4          4.402         -4.258          119.7          47.93         -165.1          122.1          6.578
     1.431              -16.78          38.04          23.16          33.48          4.349           -4.3          118.8          48.05         -165.1          122.0          6.667
     1.475               -16.8           38.0          23.25          33.57          4.288         -4.349          117.8           48.2         -165.1          121.8          6.771
     1.518              -16.81          37.95          23.37          33.68          4.215         -4.407          116.6          48.36         -165.0          121.6          6.894
     1.561              -16.84           37.9           23.5          33.81          4.129         -4.476          115.2          48.57         -165.0          121.4           7.04
     1.605              -16.86          37.83          23.66          33.96          4.026         -4.558          113.5          48.81         -164.9          121.1          7.215
     1.648              -16.89          37.75          23.85          34.14          3.901         -4.658          111.5           49.1         -164.9          120.8          7.426
     1.692              -16.93          37.66          24.09          34.37          3.748          -4.78          109.0          49.46         -164.8          120.4          7.685
     1.735              -16.98          37.54          24.38          34.65          3.559          -4.93          105.9           49.9         -164.7          119.9          8.004
     1.778              -17.04          37.39          24.74           35.0          3.324         -5.118          102.0          50.44         -164.6          119.3          8.401
     1.822              -17.12           37.2           25.2          35.44          3.028         -5.354          97.16          51.14         -164.4          118.5          8.902
     1.865              -17.22          36.96          25.78          35.99          2.651         -5.654          90.98          52.01         -164.2          117.6          9.539
     1.908              -17.34          36.65          26.53          36.71          2.169         -6.038          83.07          53.14         -164.0          116.3          10.35
     1.952               -17.5          36.26          27.48          37.62          1.551         -6.532          72.93          54.58         -163.6          114.7           11.4
     1.995               -17.7          35.76           28.7          38.79         0.7609         -7.161          59.97          56.43         -163.2          112.7          12.74
     2.038              -17.96          35.13          30.24          40.26        -0.2325         -7.953          43.67          58.74         -162.7          110.1          14.42
     2.082              -18.27          34.36          32.11          42.05         -1.443         -8.919          23.81          61.57         -162.1          107.0          16.46
     2.125              -18.63          33.47          34.27          44.13         -2.846         -10.04          0.796          64.84         -161.4          103.3          18.84
     2.169              -19.02           32.5          36.62          46.38         -4.366         -11.25         -24.13          68.39         -160.6           99.4          21.41
     2.212              -19.41          31.54          38.97          48.62         -5.885         -12.46         -49.05          71.93         -159.8          95.47          23.98
     2.255              -19.77          30.65          41.14           50.7         -7.288         -13.58         -72.07          75.21         -159.1          91.84          26.35
     2.299              -20.08          29.88          43.01          52.49         -8.499         -14.54         -91.93          78.03         -158.4           88.7           28.4
     2.342              -20.34          29.25          44.54          53.96         -9.492         -15.34         -108.2          80.35         -157.9          86.13          30.08
     2.385              -20.54          28.75          45.76          55.13         -10.28         -15.97         -121.2          82.19         -157.5          84.09          31.41
     2.429               -20.7          28.35          46.72          56.04          -10.9         -16.46         -131.3          83.63         -157.2          82.49          32.46
     2.472              -20.82          28.05          47.46          56.76         -11.38         -16.84         -139.2          84.76         -156.9          81.24          33.27
     2.516              -20.92          27.81          48.04          57.31         -11.76         -17.14         -145.4          85.64         -156.8          80.27          33.91
     2.559               -21.0          27.62           48.5          57.75         -12.06         -17.38         -150.3          86.33         -156.6           79.5          34.41
     2.602              -21.06          27.47          48.86           58.1         -12.29         -17.57         -154.1          86.88         -156.5          78.89          34.81
     2.646              -21.11          27.35          49.15          58.38         -12.48         -17.72         -157.2          87.32         -156.4           78.4          35.13
     2.689              -21.15          27.25          49.39          58.61         -12.63         -17.84         -159.7          87.67         -156.3          78.01          35.38
     2.732              -21.18          27.17          49.58          58.79         -12.76         -17.94         -161.8          87.97         -156.2          77.69           35.6
     2.776               -21.2          27.11          49.74          58.94         -12.86         -18.02         -163.5          88.21         -156.2          77.42          35.77
